<?xml version="1.0" encoding="UTF-8" standalone="no"?>
<!-- Created with Inkscape (http://www.inkscape.org/) -->
<svg
   xmlns:dc="http://purl.org/dc/elements/1.1/"
   xmlns:cc="http://creativecommons.org/ns#"
   xmlns:rdf="http://www.w3.org/1999/02/22-rdf-syntax-ns#"
   xmlns:svg="http://www.w3.org/2000/svg"
   xmlns="http://www.w3.org/2000/svg"
   xmlns:sodipodi="http://sodipodi.sourceforge.net/DTD/sodipodi-0.dtd"
   xmlns:inkscape="http://www.inkscape.org/namespaces/inkscape"
   width="744.09448819"
   height="1052.3622047"
   id="svg12385"
   sodipodi:version="0.32"
   inkscape:version="0.46+pre4"
   sodipodi:docname="camera white.svg"
   inkscape:output_extension="org.inkscape.output.svg.inkscape">
  <defs
     id="defs12387">
    <inkscape:perspective
       sodipodi:type="inkscape:persp3d"
       inkscape:vp_x="0 : 526.18109 : 1"
       inkscape:vp_y="0 : 1000 : 0"
       inkscape:vp_z="744.09448 : 526.18109 : 1"
       inkscape:persp3d-origin="372.04724 : 350.78739 : 1"
       id="perspective12393" />
  </defs>
  <sodipodi:namedview
     id="base"
     pagecolor="#ffffff"
     bordercolor="#666666"
     borderopacity="1.0"
     gridtolerance="10000"
     guidetolerance="10"
     objecttolerance="10"
     inkscape:pageopacity="0.0"
     inkscape:pageshadow="2"
     inkscape:zoom="0.7"
     inkscape:cx="282.59269"
     inkscape:cy="520"
     inkscape:document-units="px"
     inkscape:current-layer="layer1"
     showgrid="false"
     inkscape:window-width="1280"
     inkscape:window-height="938"
     inkscape:window-x="-4"
     inkscape:window-y="-4" />
  <metadata
     id="metadata12390">
    <rdf:RDF>
      <cc:Work
         rdf:about="">
        <dc:format>image/svg+xml</dc:format>
        <dc:type
           rdf:resource="http://purl.org/dc/dcmitype/StillImage" />
        <dc:title>Other map symbols</dc:title>
        <dc:creator>
          <cc:Agent>
            <dc:title>Mohamed Ibrahim</dc:title>
          </cc:Agent>
        </dc:creator>
        <dc:rights>
          <cc:Agent>
            <dc:title>Public Domain</dc:title>
          </cc:Agent>
        </dc:rights>
        <dc:publisher>
          <cc:Agent>
            <dc:title>clker.com</dc:title>
          </cc:Agent>
        </dc:publisher>
        <dc:subject>
          <rdf:Bag>
            <rdf:li>other map symbols</rdf:li>
          </rdf:Bag>
        </dc:subject>
        <cc:license
           rdf:resource="http://creativecommons.org/licenses/publicdomain/" />
      </cc:Work>
      <cc:License
         rdf:about="http://creativecommons.org/licenses/publicdomain/">
        <cc:permits
           rdf:resource="http://creativecommons.org/ns#Reproduction" />
        <cc:permits
           rdf:resource="http://creativecommons.org/ns#Distribution" />
        <cc:permits
           rdf:resource="http://creativecommons.org/ns#DerivativeWorks" />
      </cc:License>
    </rdf:RDF>
  </metadata>
  <g
     inkscape:label="Layer 1"
     inkscape:groupmode="layer"
     id="layer1">
    <path
       d="M 341.15353,428.54406 C 363.62747,428.54406 381.89616,410.30983 381.89616,387.83589 L 381.89616,128.31704 C 381.89616,105.8431 363.62747,87.608879 341.15353,87.608879 L 81.703615,87.608879 C 59.195206,87.608879 40.960982,105.8431 40.960982,128.31704 L 40.960982,387.83589 C 40.960982,410.30983 59.195206,428.54406 81.703615,428.54406 L 341.15353,428.54406 z"
       style="fill:#231f20;fill-opacity:1;fill-rule:nonzero;stroke:none"
       id="path2776" />
    <path
       d="M 81.703615,94.502725 C 63.05576,94.502725 47.820359,109.66919 47.820359,128.31704 L 47.820359,387.83589 C 47.820359,406.48375 63.05576,421.61574 81.703615,421.61574 L 341.15353,421.61574 C 359.80138,421.61574 374.93338,406.48375 374.93338,387.83589 L 374.93338,128.31704 C 374.93338,109.66919 359.80138,94.502725 341.15353,94.502725 L 81.703615,94.502725 z"
       style="fill:#ffffff;fill-opacity:1;fill-rule:nonzero;stroke:none"
       id="path2778" />
    <path
       d="M 235.47086,208.8027 C 257.11754,208.8027 275.90327,220.59118 286.27851,237.96367 L 347.42693,238.03261 L 347.42693,205.25237 C 347.42693,193.05026 337.49979,183.15759 325.33215,183.15759 L 97.456054,183.15759 C 85.253946,183.15759 75.430214,193.05026 75.430214,205.25237 L 75.499153,237.75686 L 184.62874,237.82579 C 195.07292,220.52224 213.78971,208.8027 235.47086,208.8027"
       style="fill:#231f20;fill-opacity:1;fill-rule:nonzero;stroke:none"
       id="path2780" />
    <path
       d="M 132.5802,172.74788 L 112.31229,172.74788 L 109.96839,180.05536 L 134.26919,180.05536 L 132.5802,172.74788 z"
       style="fill:#231f20;fill-opacity:1;fill-rule:nonzero;stroke:none"
       id="path2782" />
    <path
       d="M 315.37054,168.85286 L 288.38113,168.85286 L 283.58991,180.1243 L 319.74813,180.1243 L 315.37054,168.85286 z"
       style="fill:#231f20;fill-opacity:1;fill-rule:nonzero;stroke:none"
       id="path2784" />
    <path
       d="M 222.71724,176.22928 L 199.48498,176.22928 L 199.48498,164.99231 L 222.71724,164.99231 L 222.71724,176.22928 z M 244.01923,160.47684 L 178.42428,160.47684 L 164.91234,180.26218 L 256.39369,180.26218 L 244.01923,160.47684 z"
       style="fill:#231f20;fill-opacity:1;fill-rule:nonzero;stroke:none"
       id="path2786" />
    <path
       d="M 289.44968,243.82344 C 292.82766,251.26879 294.82688,259.47247 294.82688,268.19319 C 294.82688,300.97343 268.2511,327.58368 235.47086,327.58368 C 202.65615,327.58368 176.08037,300.97343 176.08037,268.19319 C 176.08037,259.47247 178.04512,251.26879 181.45757,243.78897 L 75.430214,243.78897 L 75.430214,333.2711 C 75.430214,345.40427 85.253946,355.29694 97.456054,355.29694 L 325.33215,355.29694 C 337.49979,355.29694 347.42693,345.40427 347.42693,333.2711 L 347.49587,243.82344 L 289.44968,243.82344 z"
       style="fill:#231f20;fill-opacity:1;fill-rule:nonzero;stroke:none"
       id="path2788" />
    <path
       d="M 267.83747,248.6836 C 266.9068,247.02908 265.73485,245.47796 264.45949,243.99579 C 257.53117,235.65423 247.15593,230.17362 235.47086,230.17362 C 223.75132,230.17362 213.37608,235.61976 206.44777,243.92685 C 205.17241,245.44349 204.00045,246.99461 203.00084,248.6836 C 199.51945,254.4055 197.41683,261.02359 197.41683,268.19319 C 197.41683,289.15048 214.44463,306.17828 235.47086,306.17828 C 256.39369,306.17828 273.42149,289.15048 273.42149,268.19319 C 273.42149,261.02359 271.35333,254.4055 267.83747,248.6836"
       style="fill:#231f20;fill-opacity:1;fill-rule:nonzero;stroke:none"
       id="path2790" />
  </g>
</svg>
